<svg width="50" height="50" xmlns="http://www.w3.org/2000/svg">

 <g>
  <title>background</title>
  <rect fill="none" id="canvas_background" height="402" width="582" y="-1" x="-1"/>
 </g>
 <g>
  <title>Layer 1</title>
  <rect stroke="null" x="0" y="0" id="svg_1" width="49.896698" height="50" fill="none"/>
  <path fill="#ff0000" id="svg_2" d="m42.793396,3.309906l0,35.004c0,0 -0.125,5.996 -6.984,5.996c-7.51,0 -8.016,-4.873 -8.016,-6c0,-2.41 0.942,-5.037 8,-5.037c3.249,0 4,-0.835 4,-2.963c0,0 0,-15.463 0,-16.78s-0.08,-1.793 -1.543,-1.462c-2.517,0.569 -18.957,4.133 -19.613,4.29s-0.844,0.546 -0.844,1.702c0,2.127 0,22.997 0,25.25s-1.742,6 -8,6s-7,-3.998 -7,-6c0,-2.973 2.25,-4.891 7.007,-4.891c4.431,0 4.993,-1.249 4.993,-3.109c0,-6.633 0,-26.04 0,-27s0.391,-1.609 1.366,-1.824c1.631,-0.358 24.78,-5.131 24.78,-5.131s1.854,-0.423 1.854,1.955z"/>
 </g>
</svg>